<svg width="490" height="179" viewBox="0 0 490 179" fill="none" xmlns="http://www.w3.org/2000/svg">
<path d="M155.135 1.12012L205.707 88.1123L206.373 89.2598L205.707 90.4082L155.124 177.03L154.472 178.146H51.5078L50.8584 177.023L0.661133 90.4199L0 89.2715L0.661133 88.124L51.2383 1.12012L51.8828 0H154.485L155.135 1.12012ZM130.55 45.5576L155.135 87.8301L155.801 88.9775L155.135 90.126L129.891 133.347L129.239 134.462H79.5674L69.1416 152.541H139.521L169.381 99.3076C167.034 97.1161 165.565 94.1388 165.253 90.9365C164.941 87.7343 165.806 84.5278 167.685 81.9209C169.563 79.314 172.327 77.4863 175.455 76.7822C178.583 76.0783 181.859 76.5459 184.667 78.0977C187.475 79.6496 189.621 82.1794 190.701 85.209C191.781 88.2384 191.719 91.5594 190.529 94.5469C189.339 97.5346 187.102 99.9824 184.239 101.43C181.376 102.877 178.085 103.224 174.985 102.405C174.732 102.332 174.48 102.258 174.23 102.176C174.073 102.123 173.917 102.067 173.762 102.01C173.558 101.934 173.354 101.854 173.157 101.769L142.792 155.9L142.147 157.049H66.5361L56.9795 173.633H151.91L201.155 89.2646L153.12 6.60742L130.55 45.5576ZM5.2041 89.2646L52.9355 171.633L75.4639 132.568L50.8584 90.1191L50.1973 88.9707L50.8604 87.8232L76.1006 44.4326L76.752 43.3145H126.649L136.472 26.3652H67.1973L36.1133 79.5293C38.6101 81.6374 40.2294 84.6089 40.6504 87.8564C41.0714 91.104 40.2639 94.3921 38.3877 97.0713C36.5115 99.7505 33.7023 101.626 30.5156 102.328C27.329 103.03 23.9962 102.507 21.1748 100.863C18.3532 99.2189 16.248 96.5723 15.2754 93.4463C14.3029 90.3205 14.5333 86.9422 15.9209 83.9785C17.3087 81.0148 19.7532 78.6807 22.7715 77.4375C25.7899 76.1944 29.1638 76.1323 32.2256 77.2637L63.9746 22.96L64.626 21.8467H139.089L149.14 4.51855H54.4639L5.2041 89.2646ZM55.4033 88.9824L79.1445 129.941H126.67L150.59 88.9775L126.666 47.833H79.3281L55.4033 88.9824ZM481.319 63.9863H460.682V123.114H452.766V63.9863H432.073V56.3975H481.319V63.9863ZM484.567 112.249C487.568 112.249 490 114.681 490 117.682C490 120.682 487.568 123.114 484.567 123.114C481.567 123.114 479.135 120.682 479.135 117.682C479.135 114.681 481.567 112.249 484.567 112.249ZM259.521 112.007L282.07 56.5068H291.87V122.623H284.227V71.2441L263.469 121.722L263.835 122.623H255.209L255.575 121.721L234.981 71.6406V122.623H227.338V56.5068H236.974L259.521 112.007ZM358.15 122.623H349.715L343.139 103.951H316.654L310.078 122.623H301.644L325.884 56.5068H333.91L358.15 122.623ZM412.091 109.215V56.5068H420.007V122.623H412.091V122.621L376.003 69.8945V122.623H368.087V56.5068H376.004L412.091 109.215ZM178.295 80.9785C176.591 80.9786 174.926 81.4858 173.51 82.4355C172.093 83.3853 170.989 84.7349 170.336 86.3145C169.683 87.894 169.512 89.6323 169.843 91.3096C170.174 92.9869 170.994 94.5282 172.197 95.7383C173.401 96.9484 174.935 97.7741 176.605 98.1094C178.276 98.4447 180.008 98.2746 181.583 97.6221C183.158 96.9695 184.505 95.8629 185.453 94.4424C186.401 93.022 186.909 91.3514 186.912 89.6416C186.913 88.5049 186.69 87.3787 186.258 86.3281C185.825 85.2777 185.191 84.3229 184.391 83.5186C183.591 82.7142 182.641 82.0755 181.595 81.6396C180.549 81.2038 179.427 80.9794 178.295 80.9785ZM27.707 80.9766C26.0036 80.9767 24.3384 81.483 22.9219 82.4326C21.5052 83.3824 20.4006 84.7329 19.748 86.3125C19.0956 87.892 18.9236 89.6303 19.2549 91.3076C19.5862 92.9849 20.4058 94.5262 21.6094 95.7363C22.813 96.9464 24.3472 97.7711 26.0176 98.1064C27.688 98.4417 29.4205 98.2725 30.9951 97.6201C32.5699 96.9676 33.9168 95.861 34.8652 94.4404C35.8137 93.0199 36.3215 91.3487 36.3242 89.6387L36.3174 89.6416C36.3198 87.3467 35.4143 85.1444 33.7998 83.5195C32.1853 81.8946 29.9934 80.9802 27.707 80.9766ZM319.25 96.5801H340.543L329.896 66.3496L319.25 96.5801Z" fill="white"/>
</svg>
